<mxfile host="Electron" modified="2023-12-21T20:13:34.843Z" agent="Mozilla/5.0 (X11; Linux x86_64) AppleWebKit/537.36 (KHTML, like Gecko) draw.io/22.0.3 Chrome/114.0.5735.289 Electron/25.8.4 Safari/537.36" etag="hAJIX-B9qtkZrKINnL05" version="22.0.3" type="device">
  <diagram id="qZC8DRDDxwtRrLPHVhlM" name="Pagina-1">
    <mxGraphModel dx="3772" dy="1651" grid="1" gridSize="10" guides="1" tooltips="1" connect="1" arrows="1" fold="1" page="1" pageScale="1" pageWidth="1169" pageHeight="827" math="0" shadow="0">
      <root>
        <mxCell id="0" />
        <mxCell id="1" parent="0" />
        <mxCell id="HG3mYx-gKlURyib71wjE-33" value="Volantino" style="swimlane;fontStyle=0;align=center;verticalAlign=top;childLayout=stackLayout;horizontal=1;startSize=26;horizontalStack=0;resizeParent=1;resizeLast=0;collapsible=1;marginBottom=0;rounded=0;shadow=0;strokeWidth=1;" parent="1" vertex="1">
          <mxGeometry x="-1410" y="-496" width="135" height="242" as="geometry">
            <mxRectangle x="-1070" y="-380" width="170" height="26" as="alternateBounds" />
          </mxGeometry>
        </mxCell>
        <mxCell id="HG3mYx-gKlURyib71wjE-382" value="-negozio: Negozio" style="text;align=left;verticalAlign=top;spacingLeft=4;spacingRight=4;overflow=hidden;rotatable=0;points=[[0,0.5],[1,0.5]];portConstraint=eastwest;" parent="HG3mYx-gKlURyib71wjE-33" vertex="1">
          <mxGeometry y="26" width="135" height="26" as="geometry" />
        </mxCell>
        <mxCell id="HG3mYx-gKlURyib71wjE-383" value="-dataFine: Data" style="text;align=left;verticalAlign=top;spacingLeft=4;spacingRight=4;overflow=hidden;rotatable=0;points=[[0,0.5],[1,0.5]];portConstraint=eastwest;rounded=0;shadow=0;html=0;" parent="HG3mYx-gKlURyib71wjE-33" vertex="1">
          <mxGeometry y="52" width="135" height="26" as="geometry" />
        </mxCell>
        <mxCell id="HG3mYx-gKlURyib71wjE-384" value="-idVolantino: int" style="text;align=left;verticalAlign=top;spacingLeft=4;spacingRight=4;overflow=hidden;rotatable=0;points=[[0,0.5],[1,0.5]];portConstraint=eastwest;rounded=0;shadow=0;html=0;" parent="HG3mYx-gKlURyib71wjE-33" vertex="1">
          <mxGeometry y="78" width="135" height="26" as="geometry" />
        </mxCell>
        <mxCell id="xA6VTKyz8VMUaF2pVSdn-1" value="-volantinoFile: String" style="text;align=left;verticalAlign=top;spacingLeft=4;spacingRight=4;overflow=hidden;rotatable=0;points=[[0,0.5],[1,0.5]];portConstraint=eastwest;rounded=0;shadow=0;html=0;" parent="HG3mYx-gKlURyib71wjE-33" vertex="1">
          <mxGeometry y="104" width="135" height="26" as="geometry" />
        </mxCell>
        <mxCell id="HG3mYx-gKlURyib71wjE-38" value="" style="line;html=1;strokeWidth=1;align=left;verticalAlign=middle;spacingTop=-1;spacingLeft=3;spacingRight=3;rotatable=0;labelPosition=right;points=[];portConstraint=eastwest;" parent="HG3mYx-gKlURyib71wjE-33" vertex="1">
          <mxGeometry y="130" width="135" height="8" as="geometry" />
        </mxCell>
        <mxCell id="HG3mYx-gKlURyib71wjE-385" value="+getNegozio(): Negozio" style="text;align=left;verticalAlign=top;spacingLeft=4;spacingRight=4;overflow=hidden;rotatable=0;points=[[0,0.5],[1,0.5]];portConstraint=eastwest;fontStyle=0" parent="HG3mYx-gKlURyib71wjE-33" vertex="1">
          <mxGeometry y="138" width="135" height="26" as="geometry" />
        </mxCell>
        <mxCell id="HG3mYx-gKlURyib71wjE-387" value="+getFile(): String" style="text;align=left;verticalAlign=top;spacingLeft=4;spacingRight=4;overflow=hidden;rotatable=0;points=[[0,0.5],[1,0.5]];portConstraint=eastwest;fontStyle=0" parent="HG3mYx-gKlURyib71wjE-33" vertex="1">
          <mxGeometry y="164" width="135" height="26" as="geometry" />
        </mxCell>
        <mxCell id="HG3mYx-gKlURyib71wjE-386" value="+getDataFine(): Data" style="text;align=left;verticalAlign=top;spacingLeft=4;spacingRight=4;overflow=hidden;rotatable=0;points=[[0,0.5],[1,0.5]];portConstraint=eastwest;fontStyle=0" parent="HG3mYx-gKlURyib71wjE-33" vertex="1">
          <mxGeometry y="190" width="135" height="26" as="geometry" />
        </mxCell>
        <mxCell id="lOrxghr5c-Dz1As2GkDs-1" value="+getIdVolantino(): int" style="text;align=left;verticalAlign=top;spacingLeft=4;spacingRight=4;overflow=hidden;rotatable=0;points=[[0,0.5],[1,0.5]];portConstraint=eastwest;fontStyle=0" vertex="1" parent="HG3mYx-gKlURyib71wjE-33">
          <mxGeometry y="216" width="135" height="26" as="geometry" />
        </mxCell>
        <mxCell id="HG3mYx-gKlURyib71wjE-71" value="GestioneVolantini" style="swimlane;fontStyle=0;align=center;verticalAlign=top;childLayout=stackLayout;horizontal=1;startSize=26;horizontalStack=0;resizeParent=1;resizeLast=0;collapsible=1;marginBottom=0;rounded=0;shadow=0;strokeWidth=1;" parent="1" vertex="1">
          <mxGeometry x="-1190" y="-470" width="370" height="190" as="geometry">
            <mxRectangle x="-1290" y="119" width="170" height="26" as="alternateBounds" />
          </mxGeometry>
        </mxCell>
        <mxCell id="HG3mYx-gKlURyib71wjE-388" value="-volantini: List&lt;Volantino&gt;" style="text;align=left;verticalAlign=top;spacingLeft=4;spacingRight=4;overflow=hidden;rotatable=0;points=[[0,0.5],[1,0.5]];portConstraint=eastwest;" parent="HG3mYx-gKlURyib71wjE-71" vertex="1">
          <mxGeometry y="26" width="370" height="26" as="geometry" />
        </mxCell>
        <mxCell id="HG3mYx-gKlURyib71wjE-354" value="-ordineFiltro: boolean" style="text;align=left;verticalAlign=top;spacingLeft=4;spacingRight=4;overflow=hidden;rotatable=0;points=[[0,0.5],[1,0.5]];portConstraint=eastwest;" parent="HG3mYx-gKlURyib71wjE-71" vertex="1">
          <mxGeometry y="52" width="370" height="26" as="geometry" />
        </mxCell>
        <mxCell id="HG3mYx-gKlURyib71wjE-74" value="" style="line;html=1;strokeWidth=1;align=left;verticalAlign=middle;spacingTop=-1;spacingLeft=3;spacingRight=3;rotatable=0;labelPosition=right;points=[];portConstraint=eastwest;" parent="HG3mYx-gKlURyib71wjE-71" vertex="1">
          <mxGeometry y="78" width="370" height="8" as="geometry" />
        </mxCell>
        <mxCell id="HG3mYx-gKlURyib71wjE-378" value="+filtroPreferito(lista: List&lt;Volantino, filtro: boolean): List&lt;Volantino&gt;" style="text;align=left;verticalAlign=top;spacingLeft=4;spacingRight=4;overflow=hidden;rotatable=0;points=[[0,0.5],[1,0.5]];portConstraint=eastwest;" parent="HG3mYx-gKlURyib71wjE-71" vertex="1">
          <mxGeometry y="86" width="370" height="26" as="geometry" />
        </mxCell>
        <mxCell id="HG3mYx-gKlURyib71wjE-377" value="+filtroNegozio(lista: List&lt;Volantino&gt;, filtro: Negozio): List&lt;Volantino&gt;" style="text;align=left;verticalAlign=top;spacingLeft=4;spacingRight=4;overflow=hidden;rotatable=0;points=[[0,0.5],[1,0.5]];portConstraint=eastwest;" parent="HG3mYx-gKlURyib71wjE-71" vertex="1">
          <mxGeometry y="112" width="370" height="26" as="geometry" />
        </mxCell>
        <mxCell id="HG3mYx-gKlURyib71wjE-379" value="+restituisciVolantini(): List&lt;Volantino&gt;" style="text;align=left;verticalAlign=top;spacingLeft=4;spacingRight=4;overflow=hidden;rotatable=0;points=[[0,0.5],[1,0.5]];portConstraint=eastwest;" parent="HG3mYx-gKlURyib71wjE-71" vertex="1">
          <mxGeometry y="138" width="370" height="26" as="geometry" />
        </mxCell>
        <mxCell id="HG3mYx-gKlURyib71wjE-86" value="Utente" style="swimlane;fontStyle=2;align=center;verticalAlign=top;childLayout=stackLayout;horizontal=1;startSize=26;horizontalStack=0;resizeParent=1;resizeLast=0;collapsible=1;marginBottom=0;rounded=0;shadow=0;strokeWidth=1;dashed=1;" parent="1" vertex="1">
          <mxGeometry x="-1630" y="-458" width="150" height="90" as="geometry">
            <mxRectangle x="960" y="120" width="160" height="26" as="alternateBounds" />
          </mxGeometry>
        </mxCell>
        <mxCell id="HG3mYx-gKlURyib71wjE-96" value="" style="line;html=1;strokeWidth=1;align=left;verticalAlign=middle;spacingTop=-1;spacingLeft=3;spacingRight=3;rotatable=0;labelPosition=right;points=[];portConstraint=eastwest;dashed=1;" parent="HG3mYx-gKlURyib71wjE-86" vertex="1">
          <mxGeometry y="26" width="150" height="8" as="geometry" />
        </mxCell>
        <mxCell id="HG3mYx-gKlURyib71wjE-306" value="" style="endArrow=classic;html=1;edgeStyle=orthogonalEdgeStyle;rounded=0;" parent="HG3mYx-gKlURyib71wjE-86" edge="1">
          <mxGeometry relative="1" as="geometry">
            <mxPoint x="149.54999999999995" y="56" as="sourcePoint" />
            <mxPoint x="220" y="58" as="targetPoint" />
            <Array as="points">
              <mxPoint x="150" y="58" />
              <mxPoint x="220" y="58" />
            </Array>
          </mxGeometry>
        </mxCell>
        <mxCell id="HG3mYx-gKlURyib71wjE-307" value="Visualizza" style="edgeLabel;resizable=0;html=1;align=center;verticalAlign=middle;" parent="HG3mYx-gKlURyib71wjE-306" connectable="0" vertex="1">
          <mxGeometry relative="1" as="geometry">
            <mxPoint y="10" as="offset" />
          </mxGeometry>
        </mxCell>
        <mxCell id="HG3mYx-gKlURyib71wjE-308" value="1" style="edgeLabel;resizable=0;html=1;align=left;verticalAlign=bottom;" parent="HG3mYx-gKlURyib71wjE-306" connectable="0" vertex="1">
          <mxGeometry x="-1" relative="1" as="geometry">
            <mxPoint y="2" as="offset" />
          </mxGeometry>
        </mxCell>
        <mxCell id="HG3mYx-gKlURyib71wjE-309" value="*" style="edgeLabel;resizable=0;html=1;align=right;verticalAlign=bottom;" parent="HG3mYx-gKlURyib71wjE-306" connectable="0" vertex="1">
          <mxGeometry x="1" relative="1" as="geometry">
            <mxPoint x="-10" as="offset" />
          </mxGeometry>
        </mxCell>
        <mxCell id="HG3mYx-gKlURyib71wjE-269" value="LetturaDBDati" style="swimlane;fontStyle=2;align=center;verticalAlign=top;childLayout=stackLayout;horizontal=1;startSize=26;horizontalStack=0;resizeParent=1;resizeLast=0;collapsible=1;marginBottom=0;rounded=0;shadow=0;strokeWidth=1;dashed=1;" parent="1" vertex="1">
          <mxGeometry x="-760" y="-426.5" width="160" height="103" as="geometry">
            <mxRectangle x="-670" y="-430" width="160" height="26" as="alternateBounds" />
          </mxGeometry>
        </mxCell>
        <mxCell id="HG3mYx-gKlURyib71wjE-270" value="" style="line;html=1;strokeWidth=1;align=left;verticalAlign=middle;spacingTop=-1;spacingLeft=3;spacingRight=3;rotatable=0;labelPosition=right;points=[];portConstraint=eastwest;dashed=1;" parent="HG3mYx-gKlURyib71wjE-269" vertex="1">
          <mxGeometry y="26" width="160" height="8" as="geometry" />
        </mxCell>
        <mxCell id="HG3mYx-gKlURyib71wjE-300" value="Lista Volantini" style="edgeLabel;resizable=0;html=1;align=center;verticalAlign=middle;" parent="1" connectable="0" vertex="1">
          <mxGeometry x="-1240" y="-350.00428571428574" as="geometry">
            <mxPoint x="10" y="-1" as="offset" />
          </mxGeometry>
        </mxCell>
        <mxCell id="HG3mYx-gKlURyib71wjE-301" value="*" style="edgeLabel;resizable=0;html=1;align=left;verticalAlign=bottom;" parent="1" connectable="0" vertex="1">
          <mxGeometry x="-1020" y="-490" as="geometry">
            <mxPoint x="-249" y="126" as="offset" />
          </mxGeometry>
        </mxCell>
        <mxCell id="HG3mYx-gKlURyib71wjE-302" value="1" style="edgeLabel;resizable=0;html=1;align=left;verticalAlign=bottom;" parent="1" connectable="0" vertex="1">
          <mxGeometry x="-950" y="-490" as="geometry">
            <mxPoint x="-249" y="126" as="offset" />
          </mxGeometry>
        </mxCell>
        <mxCell id="HG3mYx-gKlURyib71wjE-305" value="1" style="text;html=1;strokeColor=none;fillColor=none;align=center;verticalAlign=middle;whiteSpace=wrap;rounded=0;" parent="1" vertex="1">
          <mxGeometry x="-832" y="-380" width="40" height="20" as="geometry" />
        </mxCell>
        <mxCell id="HG3mYx-gKlURyib71wjE-389" value="" style="endArrow=none;html=1;exitX=1.003;exitY=-0.092;exitDx=0;exitDy=0;exitPerimeter=0;entryX=0.001;entryY=0.904;entryDx=0;entryDy=0;entryPerimeter=0;" parent="1" source="HG3mYx-gKlURyib71wjE-385" target="HG3mYx-gKlURyib71wjE-378" edge="1">
          <mxGeometry width="50" height="50" relative="1" as="geometry">
            <mxPoint x="-1120" y="-370" as="sourcePoint" />
            <mxPoint x="-1170" y="-360" as="targetPoint" />
          </mxGeometry>
        </mxCell>
        <mxCell id="HG3mYx-gKlURyib71wjE-391" value="" style="endArrow=none;html=1;exitX=0.31;exitY=0.999;exitDx=0;exitDy=0;exitPerimeter=0;" parent="1" source="HG3mYx-gKlURyib71wjE-305" edge="1">
          <mxGeometry width="50" height="50" relative="1" as="geometry">
            <mxPoint x="-950" y="-340" as="sourcePoint" />
            <mxPoint x="-760" y="-360" as="targetPoint" />
          </mxGeometry>
        </mxCell>
        <mxCell id="HG3mYx-gKlURyib71wjE-392" value="Lettura&lt;br&gt;Volantini&lt;br&gt;dal DB" style="text;html=1;align=center;verticalAlign=middle;resizable=0;points=[];autosize=1;strokeColor=none;" parent="1" vertex="1">
          <mxGeometry x="-820" y="-360" width="60" height="50" as="geometry" />
        </mxCell>
        <mxCell id="HG3mYx-gKlURyib71wjE-352" value="1" style="text;html=1;strokeColor=none;fillColor=none;align=center;verticalAlign=middle;whiteSpace=wrap;rounded=0;" parent="1" vertex="1">
          <mxGeometry x="-850" y="-380" width="160" height="20" as="geometry" />
        </mxCell>
      </root>
    </mxGraphModel>
  </diagram>
</mxfile>
